HIERARCHY
ROOT Hips
{
  OFFSET 90.7885 88.945 -76.2838
  CHANNELS 6 Xposition Yposition Zposition Zrotation Xrotation Yrotation
  JOINT LeftUpLeg
  {
    OFFSET 8.64259 1.95398 -2.38835
    CHANNELS 3 Zrotation Xrotation Yrotation
    JOINT LeftLeg
    {
      OFFSET 43.7702 0 0
      CHANNELS 3 Zrotation Xrotation Yrotation
      JOINT LeftFoot
      {
        OFFSET 40.6238 0 0
        CHANNELS 3 Zrotation Xrotation Yrotation
        JOINT LeftToeBase
        {
          OFFSET 12.7242 0 0
          CHANNELS 3 Zrotation Xrotation Yrotation
          End Site
          {
            OFFSET 0 0 0
          }
        }
      }
    }
  }
  JOINT RightUpLeg
  {
    OFFSET -8.2249 1.95398 -2.59336
    CHANNELS 3 Zrotation Xrotation Yrotation
    JOINT RightLeg
    {
      OFFSET 43.5653 0 0
      CHANNELS 3 Zrotation Xrotation Yrotation
      JOINT RightFoot
      {
        OFFSET 40.6238 0 0
        CHANNELS 3 Zrotation Xrotation Yrotation
        JOINT RightToeBase
        {
          OFFSET 12.7242 0 0
          CHANNELS 3 Zrotation Xrotation Yrotation
          End Site
          {
            OFFSET 0 0 0
          }
        }
      }
    }
  }
  JOINT Spine
  {
    OFFSET 0.165834 0.87714 6.61349
    CHANNELS 3 Zrotation Xrotation Yrotation
    JOINT Spine1
    {
      OFFSET 7.38963 1.71661e-005 0
      CHANNELS 3 Zrotation Xrotation Yrotation
      JOINT Spine2
      {
        OFFSET 11.9445 1.14441e-005 0
        CHANNELS 3 Zrotation Xrotation Yrotation
        JOINT Spine3
        {
          OFFSET 14.7254 4.19617e-005 0
          CHANNELS 3 Zrotation Xrotation Yrotation
          JOINT Spine4
          {
            OFFSET 10.9679 0 0
            CHANNELS 3 Zrotation Xrotation Yrotation
            JOINT RightShoulder
            {
              OFFSET 2.46616 -1.6653 3.69651
              CHANNELS 3 Zrotation Xrotation Yrotation
              JOINT RightArm
              {
                OFFSET 13.0012 0 0
                CHANNELS 3 Zrotation Xrotation Yrotation
                JOINT RightForeArm
                {
                  OFFSET 28.7848 1.52588e-005 0
                  CHANNELS 3 Zrotation Xrotation Yrotation
                  JOINT RightHand
                  {
                    OFFSET 26.5688 1.52588e-005 0
                    CHANNELS 3 Zrotation Xrotation Yrotation
                    End Site
                    {
                      OFFSET 0 0 0
                    }
                  }
                }
              }
            }
            JOINT LeftShoulder
            {
              OFFSET 2.38034 -1.29275 -3.7523
              CHANNELS 3 Zrotation Xrotation Yrotation
              JOINT LeftArm
              {
                OFFSET 16.3182 6.10352e-005 0
                CHANNELS 3 Zrotation Xrotation Yrotation
                JOINT LeftForeArm
                {
                  OFFSET 27.0901 0 0
                  CHANNELS 3 Zrotation Xrotation Yrotation
                  JOINT LeftHand
                  {
                    OFFSET 24.5451 1.52588e-005 0
                    CHANNELS 3 Zrotation Xrotation Yrotation
                    End Site
                    {
                      OFFSET 0 0 0
                    }
                  }
                }
              }
            }
            JOINT Neck
            {
              OFFSET 5.0226 -0.0266342 0
              CHANNELS 3 Zrotation Xrotation Yrotation
              JOINT Head
              {
                OFFSET 6.69363 2.86102e-005 0
                CHANNELS 3 Zrotation Xrotation Yrotation
                End Site
                {
                  OFFSET 0 0 0
                }
              }
            }
          }
        }
      }
    }
  }
}
MOTION
Frames:	9
Frame Time:	0.0416667
31.4153 99.4604 15.7387 6.09477 -86.5648 6.9283 -177.29 5.43574 95.2603 -5.12677 -2.15775 0.534344 67.0528 2.32832 -7.18971 16.8579 -4.01713 6.66121 171.451 3.63453 90.2498 -3.77373 -3.04517 1.51656 63.4973 -1.52549 2.03221 25.5292 -1.20625 3.36069 0.536062 5.97592 -89.7405 14.9209 1.18951 0.346122 3.25044 1.20359 0.29341 -19.2878 1.03049 0.687643 0.724827 1.03049 0.687639 102.524 24.3189 -76.2492 2.92247 38.8315 -62.803 -8.71667 50.7806 -0.00746847 20.473 0.461002 -18.3278 -77.5444 20.9786 97.7897 11.927 -37.4576 -78.4611 -175.621 -77.5563 179.963 -23.76 -0.451017 -2.461 43.722 -5.16935 -7.95634 -22.7375 -0.766904 0.963671 
31.1993 99.3746 14.4963 5.18204 -85.7375 5.76011 -177.568 7.26912 95.0658 -5.6129 -2.25328 0.465493 66.9177 2.31313 -7.15378 16.6283 -5.26786 8.16842 171.133 5.51179 90.1704 -4.26525 -3.11181 1.96345 63.6565 -1.63641 1.47597 25.189 -1.30719 3.62936 0.535533 6.08149 -89.8406 14.7109 1.1389 0.155381 3.04041 1.14464 0.105096 -19.4981 1.03954 0.490524 0.514525 1.03954 0.490517 102.478 23.6312 -78.156 4.75185 41.4487 -60.3128 -6.29316 48.8665 -3.43259 19.0994 0.381774 -19.4438 -78.0678 18.819 94.0182 6.36738 -38.7263 -75.693 -175.342 -84.7107 177.49 -23.6218 -0.223865 -3.65985 37.6253 -4.60518 -7.87645 -18.3081 -0.824631 1.4184 
30.968 99.3358 13.3903 8.60989 -85.1843 8.83256 -177.572 9.25601 94.9391 -6.95377 -1.92066 0.0704042 66.6348 2.36912 -6.99062 16.631 -5.04922 7.90487 170.763 7.15162 89.8831 -5.01546 -2.69358 2.32305 63.409 -1.48265 1.57772 26.548 -1.42014 3.68514 0.421829 6.22196 -89.9444 14.4304 0.862807 -0.0100239 2.75973 0.861534 -0.0479976 -19.7776 0.825927 0.249766 0.23506 0.825929 0.249766 102.453 19.9875 -79.7001 15.6542 45.4596 -65.9651 1.76152 39.3813 -15.1722 16.988 -0.26276 -23.2916 -77.5163 10.0761 97.2843 -7.11011 -38.0641 -89.7378 -16.699 -81.6877 -27.1615 -22.1405 -0.0417404 -4.63827 28.2749 -4.07249 -7.85757 -12.1496 -0.970359 1.15629 
30.6971 99.2871 12.2448 10.4973 -85.0308 10.5888 -177.108 10.9239 95.1957 -8.33125 -0.99251 -0.700163 66.6265 2.72969 -6.55722 15.7619 -4.64933 7.4625 170.919 8.73655 90.0628 -6.56829 -2.09673 2.28511 63.7188 -1.62862 1.85141 25.3456 -1.15545 3.28341 0.398132 6.49224 -90.1122 13.8911 0.734442 -0.324451 2.22028 0.719452 -0.356466 -20.3165 0.797994 -0.0887074 -0.30388 0.797995 -0.0887089 102.092 14.9644 -83.8962 25.8289 49.7826 -68.7295 8.52988 26.038 -27.501 12.3179 -0.403097 -26.6236 -78.0119 0.955115 95.7224 -20.19 -34.3389 -94.0661 -29.9802 -60.8895 -45.0438 -19.4079 0.226517 -6.51476 21.2051 -3.54065 -5.60755 -9.74597 -1.58213 -0.0935745 
30.5517 99.1514 10.9692 15.4466 -84.8489 14.9232 -176.643 12.7688 94.9999 -10.0372 0.0351488 -1.67397 66.6854 3.16188 -6.28268 15.8732 -4.58247 7.37819 170.688 11.4944 89.6623 -10.1928 -1.40737 2.3653 65.0741 -1.85591 2.60827 22.9411 -1.15535 3.62332 0.368693 6.80476 -90.1259 13.2655 0.670889 -0.336287 1.59471 0.65544 -0.365489 -20.9418 0.740946 -0.11909 -0.929124 0.740941 -0.119098 102.114 8.84695 -82.8838 43.8321 47.2387 -76.5362 10.7364 5.75935 -40.6363 4.53864 -0.00627218 -29.6903 -79.8011 -7.3338 90.8733 -27.1612 -28.3416 -89.4359 -32.2723 -38.7767 -55.1642 -19.0109 0.661574 -9.50983 14.1244 -3.41035 -6.00346 -7.06122 -1.79206 0.957973 
30.4952 98.8945 9.52842 13.5081 -84.0507 12.7846 -176.347 15.8135 94.9325 -12.8197 0.660629 -2.37831 67.3483 3.59937 -5.94836 16.2395 -3.82839 6.47224 170.219 14.5241 89.5903 -12.7095 -2.50329 2.93907 65.4499 -1.95483 2.00825 22.8753 -0.677434 2.6462 0.241148 7.16352 -90.3416 12.5467 0.316476 -0.71711 0.875581 0.284618 -0.730346 -21.6587 0.517354 -0.588849 -1.64605 0.51737 -0.58885 100.293 0.0024927 -90.0786 38.8742 48.8912 -65.3794 12.607 -7.37248 -58.126 0.0970895 0.513284 -29.4984 -82.2052 -20.2202 86.7888 -21.9747 -23.7115 -75.3363 -33.1332 -22.0515 -67.1317 -13.8113 0.456429 -9.83725 11.0293 -1.5895 -2.59527 -8.41121 -0.925969 -0.606844 
30.5529 98.4517 8.0191 8.49168 -82.2921 7.39729 -175.991 20.1229 94.5381 -16.1696 1.40835 -3.22335 69.6034 4.48901 -4.87885 15.7721 -3.26645 5.8359 170.012 18.7601 89.4753 -15.3213 -2.75662 3.23538 65.9456 -2.23236 1.51896 24.6994 -1.07481 3.19712 0.27649 7.65354 -90.4382 11.5682 0.344892 -0.912652 -0.103066 0.304385 -0.926961 -22.6367 0.60322 -0.76682 -2.62408 0.60322 -0.766833 98.456 -7.79931 -93.565 29.8147 45.2862 -44.7934 11.0209 -13.7688 -74.4203 -4.02214 1.16581 -28.3056 -85.2574 -30.368 82.4997 -14.4696 -16.5389 -61.3203 -27.5308 -13.236 -75.5113 -13.7107 0.662704 -11.9133 9.91611 -1.34011 -3.53595 -10.113 -0.629278 1.59014 
30.7428 97.7119 6.46388 0.00185142 -79.6379 -1.59253 -175.415 25.8451 94.189 -20.5445 1.12142 -4.16894 71.5469 5.05527 -4.59004 16.1528 -2.99548 5.48888 169.737 25.1958 89.5081 -20.091 -3.9532 3.76472 66.8817 -2.76766 1.43128 25.0202 -1.27468 3.58877 0.247723 8.09317 -90.4761 10.6876 0.274094 -0.970296 -0.98367 0.231135 -0.981422 -23.5167 0.553029 -0.843061 -3.50407 0.553026 -0.843081 95.7915 -15.3004 -99.1224 21.3843 33.9401 -29.9856 5.66377 -12.7797 -82.8217 -6.7179 1.41222 -26.9408 -87.9456 -39.7107 79.726 -3.33774 -8.13651 -48.5583 -25.8928 -12.7 -79.3283 -12.8259 0.646166 -12.4181 10.9936 -0.47601 -3.14021 -12.9624 0.0821065 1.99708 
30.9704 96.5916 4.92513 -5.96669 -76.2068 -7.70522 -174.255 33.031 94.3994 -26.4673 1.05472 -5.65389 71.9793 4.93926 -4.86113 14.1101 -2.14462 4.66886 169.346 32.8143 90.2713 -25.8575 -6.10224 4.51668 68.4711 -3.76601 0.638449 20.2635 -1.37726 4.40742 0.205134 8.57789 -90.5235 9.71776 0.172163 -1.05187 -1.95361 0.125706 -1.05843 -24.4859 0.480314 -0.95151 -4.4733 0.480314 -0.951511 92.4027 -21.0046 -105.232 17.218 23.1608 -22.5452 6.48029 -7.36295 -78.7096 -6.44925 1.61181 -27.8266 -90.1474 -46.309 77.676 3.82618 -0.748999 -41.2865 -25.9171 -16.0938 -76.2193 -13.5772 0.907738 -14.5201 13.1703 0.333888 -2.3129 -13.644 0.703805 2.07481 
